<svg id="visual" viewBox="0 0 900 600" width="900" height="600" xmlns="http://www.w3.org/2000/svg" xmlns:xlink="http://www.w3.org/1999/xlink" version="1.1"><rect width="900" height="600" fill="#001829"></rect><g><g transform="translate(493 311)"><path d="M0 -65.7L56.9 -32.8L56.9 32.8L0 65.7L-56.9 32.8L-56.9 -32.8Z" fill="#297EA6"></path></g><g transform="translate(863 288)"><path d="M0 -53L45.9 -26.5L45.9 26.5L0 53L-45.9 26.5L-45.9 -26.5Z" fill="#297EA6"></path></g><g transform="translate(123 596)"><path d="M0 -61L52.8 -30.5L52.8 30.5L0 61L-52.8 30.5L-52.8 -30.5Z" fill="#297EA6"></path></g><g transform="translate(234 404)"><path d="M0 -62L53.7 -31L53.7 31L0 62L-53.7 31L-53.7 -31Z" fill="#297EA6"></path></g><g transform="translate(262 183)"><path d="M0 -52L45 -26L45 26L0 52L-45 26L-45 -26Z" fill="#297EA6"></path></g><g transform="translate(319 5)"><path d="M0 -59L51.1 -29.5L51.1 29.5L0 59L-51.1 29.5L-51.1 -29.5Z" fill="#297EA6"></path></g><g transform="translate(168 285)"><path d="M0 -58L50.2 -29L50.2 29L0 58L-50.2 29L-50.2 -29Z" fill="#297EA6"></path></g><g transform="translate(86 435)"><path d="M0 -59L51.1 -29.5L51.1 29.5L0 59L-51.1 29.5L-51.1 -29.5Z" fill="#297EA6"></path></g><g transform="translate(766 448)"><path d="M0 -52L45 -26L45 26L0 52L-45 26L-45 -26Z" fill="#297EA6"></path></g><g transform="translate(434 161)"><path d="M0 -59L51.1 -29.5L51.1 29.5L0 59L-51.1 29.5L-51.1 -29.5Z" fill="#297EA6"></path></g><g transform="translate(619 523)"><path d="M0 -55L47.6 -27.5L47.6 27.5L0 55L-47.6 27.5L-47.6 -27.5Z" fill="#297EA6"></path></g><g transform="translate(670 218)"><path d="M0 -63L54.6 -31.5L54.6 31.5L0 63L-54.6 31.5L-54.6 -31.5Z" fill="#297EA6"></path></g><g transform="translate(391 488)"><path d="M0 -56L48.5 -28L48.5 28L0 56L-48.5 28L-48.5 -28Z" fill="#297EA6"></path></g></g></svg>